<svg width="48" height="48" viewBox="0 0 48 48" fill="none" xmlns="http://www.w3.org/2000/svg">
<g id="material-symbols:add-a-photo-outline">
<path id="Vector" d="M38 16V12H34V8H38V4H42V8H46V12H42V16H38ZM6 44C4.9 44 3.958 43.608 3.174 42.824C2.39 42.04 1.99867 41.0987 2 40V16C2 14.9 2.392 13.958 3.176 13.174C3.96 12.39 4.90134 11.9987 6 12H12.3L16 8H28V12H17.75L14.1 16H6V40H38V22H42V40C42 41.1 41.608 42.042 40.824 42.826C40.04 43.61 39.0987 44.0013 38 44H6ZM22 37C24.5 37 26.6253 36.1247 28.376 34.374C30.1267 32.6233 31.0013 30.4987 31 28C31 25.5 30.1247 23.3747 28.374 21.624C26.6233 19.8733 24.4987 18.9987 22 19C19.5 19 17.3747 19.8753 15.624 21.626C13.8733 23.3767 12.9987 25.5013 13 28C13 30.5 13.8753 32.6253 15.626 34.376C17.3767 36.1267 19.5013 37.0013 22 37ZM22 33C20.6 33 19.4167 32.5167 18.45 31.55C17.4833 30.5833 17 29.4 17 28C17 26.6 17.4833 25.4167 18.45 24.45C19.4167 23.4833 20.6 23 22 23C23.4 23 24.5833 23.4833 25.55 24.45C26.5167 25.4167 27 26.6 27 28C27 29.4 26.5167 30.5833 25.55 31.55C24.5833 32.5167 23.4 33 22 33Z" fill="#3C322E"/>
</g>
</svg>
