<svg width="32" height="32" viewBox="0 0 32 32" fill="none" xmlns="http://www.w3.org/2000/svg">
<g clip-path="url(#clip0_65_8)">
<path d="M21.3875 4.9591C23.04 4.9591 24.5319 5.63523 25.5829 6.72073C26.8904 6.46773 28.1229 6.00673 29.2305 5.36823C28.802 6.66926 27.8905 7.76073 26.705 8.45123C27.865 8.31473 28.9755 8.01673 30.006 7.57123C29.2335 8.68823 28.261 9.67173 27.138 10.4577C27.1485 10.6962 27.1545 10.9372 27.1545 11.1772C27.1545 18.5437 21.373 27.0402 10.801 27.0402C7.55603 27.0402 4.53353 26.1142 1.99157 24.5332C2.44631 24.5861 2.90375 24.6124 3.36157 24.6122C6.05407 24.6122 8.53353 23.7217 10.501 22.2247C7.98453 22.1817 5.86053 20.5682 5.13203 18.3547C5.48882 18.4215 5.85104 18.4552 6.21403 18.4552C6.73653 18.4552 7.24553 18.3877 7.72653 18.2597C5.09753 17.7492 3.11603 15.4957 3.11603 12.7931V12.7216C3.89153 13.1396 4.77703 13.3906 5.72053 13.4196C4.17753 12.4186 3.16303 10.7146 3.16303 8.7801C3.16303 7.7576 3.44707 6.7996 3.94157 5.9791C6.77557 9.3501 11.0106 11.5701 15.7881 11.8036C15.6895 11.3966 15.6386 10.9666 15.6386 10.5341C15.6386 7.4546 18.212 4.9591 21.3875 4.9591ZM21.3874 2.95923C17.4604 2.95923 14.207 5.82826 13.706 9.53526C10.493 8.88976 7.571 7.18876 5.4715 4.69326C5.28382 4.46999 5.04957 4.29049 4.78517 4.16732C4.52078 4.04416 4.23264 3.98032 3.94097 3.98029C3.88859 3.9803 3.83623 3.98231 3.784 3.98629C3.46699 4.01168 3.16057 4.11217 2.89008 4.27945C2.6196 4.44673 2.39282 4.676 2.2285 4.94829C1.53124 6.10523 1.16283 7.43048 1.16297 8.78129C1.16297 9.68279 1.32494 10.5608 1.63197 11.3818C1.30497 11.7453 1.11647 12.2208 1.11647 12.7228V12.7943C1.11647 14.7533 1.89097 16.5713 3.17697 17.9338C3.10297 18.2768 3.11947 18.6358 3.23247 18.9798C3.676 20.3293 4.4835 21.4923 5.5305 22.3782C4.82747 22.5348 4.102 22.6138 3.36147 22.6138C2.96997 22.6138 2.58897 22.5923 2.22847 22.5482C2.14847 22.5382 2.06947 22.5347 1.98997 22.5347C1.14997 22.5347 0.387472 23.0642 0.104472 23.8717C-0.206028 24.7567 0.138503 25.7377 0.934472 26.2332C3.8885 28.0713 7.30047 29.0417 10.8005 29.0417C22.1765 29.0417 29.0195 20.1362 29.1525 11.4372C30.086 10.6649 30.9106 9.76979 31.604 8.77623C31.8673 8.43051 32.0096 8.0078 32.009 7.57323C32.009 6.89273 31.6685 6.29123 31.15 5.9297C31.3745 5.1602 31.1185 4.3272 30.4935 3.8182C30.1285 3.5212 29.681 3.3702 29.231 3.3702C28.8802 3.36987 28.5356 3.46214 28.232 3.6377C27.571 4.01873 26.864 4.32023 26.1195 4.53726C24.7724 3.52376 23.1024 2.95926 21.3874 2.95923Z" fill="#BDC5CC"/>
</g>
<defs>
<clipPath id="clip0_65_8">
<rect width="32" height="32" fill="white"/>
</clipPath>
</defs>
</svg>
