<svg width="32" height="32" viewBox="0 0 32 32" fill="none" xmlns="http://www.w3.org/2000/svg">
<path d="M16 0C20.355 0 20.8915 0.0315582 22.5957 0.0946746C24.2682 0.157791 25.4359 0.441815 26.4773 0.852071C27.5503 1.26233 28.4339 1.79882 29.3176 2.68245C30.2012 3.56607 30.7377 4.4497 31.1479 5.52268C31.5582 6.5641 31.8422 7.73176 31.9053 9.40434C31.9684 11.1085 32 11.645 32 16C32 20.355 31.9684 20.8915 31.9053 22.5957C31.8422 24.2682 31.5582 25.4359 31.1479 26.4773C30.7377 27.5503 30.2012 28.4339 29.3176 29.3176C28.4339 30.2012 27.5503 30.7377 26.4773 31.1479C25.4359 31.5582 24.2682 31.8422 22.5957 31.9053C20.8915 31.9684 20.355 32 16 32C11.645 32 11.1085 31.9684 9.40434 31.9053C7.73176 31.8422 6.5641 31.5582 5.52268 31.1479C4.4497 30.7377 3.56607 30.2012 2.68245 29.3176C1.79882 28.4339 1.26233 27.5503 0.852071 26.4773C0.441815 25.4359 0.157791 24.2682 0.0946746 22.5957C0.0315582 20.8915 0 20.355 0 16C0 11.645 0.0315582 11.1085 0.0946746 9.40434C0.157791 7.73176 0.441815 6.5641 0.852071 5.52268C1.26233 4.4497 1.79882 3.56607 2.68245 2.68245C3.56607 1.79882 4.4497 1.26233 5.52268 0.852071C6.5641 0.441815 7.73176 0.157791 9.40434 0.0946746C11.1085 0.0315582 11.645 0 16 0ZM16 2.08284C11.4556 2.08284 10.9191 2.1144 9.15187 2.17751C7.51085 2.24063 6.59566 2.55621 5.99606 2.77712C4.4497 3.40828 3.40828 4.4497 2.77712 5.99606C2.55621 6.59566 2.24063 7.51085 2.17751 9.15187C2.1144 10.9191 2.08284 11.4556 2.08284 16C2.08284 20.5444 2.1144 21.0809 2.17751 22.8481C2.24063 24.4892 2.55621 25.4043 2.77712 26.0039C3.40828 27.5503 4.4497 28.5917 5.99606 29.2229C6.59566 29.4438 7.51085 29.7594 9.15187 29.8225C10.9191 29.8856 11.4556 29.9172 16 29.9172C20.5444 29.9172 21.0809 29.8856 22.8481 29.8225C24.4892 29.7594 25.4043 29.4438 26.0039 29.2229C27.5503 28.5917 28.5917 27.5503 29.2229 26.0039C29.4438 25.4043 29.7594 24.4892 29.8225 22.8481C29.8856 21.0809 29.9172 20.5444 29.9172 16C29.9172 11.4556 29.8856 10.9191 29.8225 9.15187C29.7594 7.51085 29.4438 6.59566 29.2229 5.99606C28.5917 4.4497 27.5503 3.40828 26.0039 2.77712C25.4043 2.55621 24.4892 2.24063 22.8481 2.17751C21.0809 2.1144 20.5444 2.08284 16 2.08284ZM16 22.4063C19.5345 22.4063 22.4063 19.5345 22.4063 16C22.4063 12.4655 19.5345 9.59369 16 9.59369C12.4655 9.59369 9.59369 12.4655 9.59369 16C9.59369 19.5345 12.4655 22.4063 16 22.4063ZM16 7.79487C20.5444 7.79487 24.2051 11.4556 24.2051 16C24.2051 20.5444 20.5444 24.2051 16 24.2051C11.4556 24.2051 7.79487 20.5444 7.79487 16C7.79487 11.4556 11.4556 7.79487 16 7.79487ZM26.4773 7.47929C26.4773 8.55227 25.5937 9.37278 24.5207 9.37278C23.4477 9.37278 22.6272 8.55227 22.6272 7.47929C22.6272 6.40631 23.4477 5.52268 24.5207 5.52268C25.5937 5.52268 26.4773 6.40631 26.4773 7.47929Z" fill="#BDC5CC"/>
</svg>
